<svg xmlns="http://www.w3.org/2000/svg"
	xmlns:xlink="http://www.w3.org/1999/xlink" version="1.1" width="3192" height="3192" viewBox="0 0 3192 3192">

	<g transform="scale(9.6) translate(10, 10)">
		<defs id="SvgjsDefs16250"/>
		<g id="SvgjsG16251" featureKey="rootContainer" transform="matrix(6.25,0,0,6.25,0,0)" fill="#fff">
			<circle cx="25" cy="25" r="25"/>
		</g>
		<g id="SvgjsG16252" featureKey="monogramFeature-0" transform="matrix(1.608363559224673,0,0,1.608363559224673,117.73703558896429,59.7756316760081)" fill="#000000">
			<path d="M-1.08 59.28 l4.08 -15.3 l20.46 -15.24 l2.16 0 l2.22 0 l4.44 0 l8.1 0 l8.28 0 l-2.28 8.34 l-1.8 6.9 l-0.9 3.24 l-0.96 3.72 l-1.14 4.14 l-1.14 4.2 l-8.28 0 l1.14 -4.2 l1.14 -4.14 l0.54 -2.1 l3.12 -11.76 l-10.26 0 l-2.28 0 l-2.22 0 l-12.72 9.54 l-3.42 12.66 l-8.28 0 z M17.76 50.94 l-2.28 8.34 l8.34 0 l2.28 -8.34 l-8.34 0 z"/>
		</g>
		<g id="SvgjsG16253" featureKey="nameFeature-0" transform="matrix(1.1152747854913534,0,0,1.1152747854913534,55.152389844151514,153.7205635595672)" fill="#000000">
			<path d="M11.6 24.32 c-3.04 0 -5.4 2.48 -5.4 5.52 c0 3.08 2.36 5.52 5.4 5.52 c3.2 0 5.6 -2.44 5.6 -5.52 c0 -3.04 -2.48 -5.52 -5.6 -5.52 z M17.12 40 l0 -1.52 c-1.44 1.12 -3.68 1.8 -6 1.8 c-5.6 0 -10.36 -4.52 -10.36 -10.44 s4.76 -10.56 10.36 -10.56 c2.32 0 4.56 0.72 6 1.84 l0 -1.64 l5.56 0 l0 20.52 l-5.56 0 z M49.428 40 l-5.48 0 l0 -2.04 c-1.4 1.48 -3.48 2.4 -5.96 2.4 c-4.8 0 -7.92 -3.32 -7.92 -8.28 l0 -12.6 l5.52 0 l0 11.64 c0 2.44 1.4 4.12 3.8 4.12 c2.68 0 4.52 -1.72 4.52 -4.56 l0 -11.2 l5.52 0 l0 20.52 z M72.536 32.480000000000004 l4.32 2.76 c-1.96 3.16 -5.08 5.24 -9.56 5.24 c-6.36 0 -10.84 -4.72 -10.84 -10.68 s4.48 -10.72 10.84 -10.72 c4.52 0 7.68 2.16 9.6 5.36 l-4.36 2.72 c-1.04 -1.72 -2.52 -3 -5.04 -3 c-3.24 0 -5.44 2.28 -5.44 5.64 s2.2 5.68 5.44 5.68 c2.52 0 4 -1.28 5.04 -3 z M94.16399999999999 24.32 c-3.04 0 -5.4 2.48 -5.4 5.52 c0 3.08 2.36 5.52 5.4 5.52 c3.2 0 5.6 -2.44 5.6 -5.52 c0 -3.04 -2.48 -5.52 -5.6 -5.52 z M99.684 40 l0 -1.52 c-1.44 1.12 -3.68 1.8 -6 1.8 c-5.6 0 -10.36 -4.52 -10.36 -10.44 s4.76 -10.56 10.36 -10.56 c2.32 0 4.56 0.72 6 1.84 l0 -1.64 l5.56 0 l0 20.52 l-5.56 0 z M118.232 40 l-5.6 0 l0 -20.52 l5.56 0 l0 2.8 c1.36 -1.88 3.4 -3.08 5.96 -3.08 l0 5.6 c-4.08 0 -5.92 2.28 -5.92 5.84 l0 9.36 z M140.22 24.16 c-2.92 0 -5.28 2.44 -5.28 5.4 c0 3.04 2.36 5.4 5.28 5.4 c3.16 0 5.52 -2.36 5.52 -5.4 c0 -2.96 -2.4 -5.4 -5.52 -5.4 z M140.18 47.519999999999996 c-4.6 0 -7.8 -1.76 -9.92 -4.8 l4 -2.72 c1.24 1.72 3.2 2.84 5.84 2.84 c3.44 0 5.56 -1.44 5.56 -4.36 l0 -0.56 c-1.48 1.24 -3.52 1.88 -5.92 1.88 c-5.48 0 -10.2 -4.44 -10.2 -10.28 c0 -5.8 4.72 -10.36 10.2 -10.36 c2.72 0 4.72 0.88 5.92 1.84 l0 -1.52 l5.52 0 l0 18.52 c0 5.28 -3.92 9.52 -11 9.52 z M169.008 24.32 c-3.04 0 -5.4 2.48 -5.4 5.52 c0 3.08 2.36 5.52 5.4 5.52 c3.2 0 5.6 -2.44 5.6 -5.52 c0 -3.04 -2.48 -5.52 -5.6 -5.52 z M174.52800000000002 40 l0 -1.52 c-1.44 1.12 -3.68 1.8 -6 1.8 c-5.6 0 -10.36 -4.52 -10.36 -10.44 s4.76 -10.56 10.36 -10.56 c2.32 0 4.56 0.72 6 1.84 l0 -1.64 l5.56 0 l0 20.52 l-5.56 0 z"/>
		</g>
	</g>
</svg>
	